<svg width="71" height="38" viewBox="0 0 71 38" fill="none" xmlns="http://www.w3.org/2000/svg">
<path d="M0.788889 29.4214L0 30.111V38H71V0L70.2111 0.696543C69.4222 1.39309 67.8444 2.78617 66.2667 2.66904C64.6889 2.55191 63.1111 0.924562 61.5333 1.84454C59.9556 2.76452 58.3778 6.23182 56.8 9.58934C55.2222 12.9469 53.6444 16.1946 52.0667 18.6291C50.4889 21.0635 48.9111 22.6847 47.3333 19.5595C45.7556 16.4342 44.1778 8.56248 42.6 7.77152C41.0222 6.98056 39.4444 13.2704 37.8667 14.2513C36.2889 15.2323 34.7111 10.9044 33.1333 12.377C31.5556 13.8496 29.9778 21.1227 28.4 21.5315C26.8222 21.9403 25.2444 15.4848 23.6667 11.2537C22.0889 7.02268 20.5111 5.01611 18.9333 8.46174C17.3556 11.9074 15.7778 20.8052 14.2 21.698C12.6222 22.5908 11.0444 15.4785 9.46667 14.8569C7.88889 14.2353 6.31111 20.1043 4.73333 23.7284C3.15556 27.3526 1.57778 28.7318 0.788889 29.4214Z" fill="url(#paint0_linear_67_850)" fill-opacity="0.3"/>
<defs>
<linearGradient id="paint0_linear_67_850" x1="35.5" y1="0" x2="35.5" y2="38" gradientUnits="userSpaceOnUse">
<stop stop-color="#37CBB0"/>
<stop offset="0.0001" stop-color="#00761A"/>
<stop offset="1" stop-color="#00761A" stop-opacity="0"/>
</linearGradient>
</defs>
</svg>
