<svg width="45" height="44" viewBox="0 0 45 44" fill="none" xmlns="http://www.w3.org/2000/svg">
<path d="M31.2505 15.1942L15.6942 30.7506C15.1627 31.2821 14.2811 31.2821 13.7496 30.7506C13.2181 30.2191 13.2181 29.3376 13.7496 28.806L29.306 13.2497C29.8375 12.7182 30.719 12.7182 31.2505 13.2497C31.782 13.7812 31.782 14.6627 31.2505 15.1942Z" fill="#560AB5"/>
<path d="M31.2505 30.7503C30.719 31.2818 29.8375 31.2818 29.306 30.7503L13.7496 15.194C13.2181 14.6624 13.2181 13.7809 13.7496 13.2494C14.2811 12.7179 15.1627 12.7179 15.6942 13.2494L31.2505 28.8058C31.782 29.3373 31.782 30.2188 31.2505 30.7503Z" fill="#560AB5"/>
</svg>
