<svg width="416" height="280" viewBox="0 0 416 280" fill="none" xmlns="http://www.w3.org/2000/svg">
<g clip-path="url(#clip0_2405_24)">
<path d="M56.7942 21.2747C56.0986 22.634 55.1943 23.8758 54.1139 24.955C53.0345 26.0351 51.7924 26.9394 50.4329 27.6348C47.6798 29.0409 44.552 29.539 41.4982 29.0576C38.4444 28.5762 35.6217 27.1399 33.435 24.955C30.694 22.2127 29.1543 18.4945 29.1543 14.6177C29.1543 10.7409 30.694 7.02269 33.435 4.28042C36.1774 1.53927 39.8965 -0.000488281 43.7744 -0.000488281C47.6523 -0.000488281 51.3715 1.53927 54.1139 4.28042C56.2993 6.46666 57.7357 9.28893 58.2173 12.3421C58.6988 15.3952 58.2006 18.5222 56.7942 21.2747Z" fill="#FF8D34"/>
<path fill-rule="evenodd" clip-rule="evenodd" d="M55.3454 35.6457L72.0188 60.9842C58.7402 67.0576 46.6459 75.4654 36.317 85.8187C24.9109 97.193 15.8655 110.709 9.70073 125.59C3.53596 140.47 0.373368 156.422 0.394692 172.529C0.353958 197.62 8.04977 222.115 22.4341 242.676C29.8243 253.254 38.8307 262.606 49.1241 270.389C50.3773 271.334 51.9298 271.793 53.4955 271.684C55.0611 271.574 56.5343 270.902 57.6434 269.792L87.4953 239.952L152.941 174.517C153.545 173.913 154.262 173.433 155.051 173.106C155.841 172.779 156.687 172.61 157.542 172.61C158.396 172.61 159.242 172.779 160.032 173.106C160.821 173.433 161.538 173.913 162.142 174.517L238.725 251.084L265.293 277.662C266.513 278.881 268.167 279.566 269.892 279.566C271.617 279.566 273.271 278.881 274.491 277.662L301.075 251.084L300.793 250.802C301 250.787 301.203 250.768 301.419 250.746L372.341 179.836L413.223 138.959C414.089 138.095 414.693 137.004 414.966 135.812C415.24 134.62 415.171 133.376 414.768 132.221C410.122 118.898 403.208 106.479 394.33 95.5118C381.331 79.4251 364.35 66.6965 344.886 58.8191L360.132 35.6486C358.151 34.556 356.334 33.1897 354.734 31.59C353.13 29.9902 351.762 28.171 350.669 26.1868L313.33 50.7458C308.591 50.1899 303.768 49.904 298.879 49.904H123.045C116.409 49.8953 109.798 50.4267 103.278 51.4857L64.8154 26.1777C63.7225 28.1619 62.3537 29.981 60.7497 31.5808C59.1494 33.1842 57.3298 34.5528 55.3454 35.6457ZM274.475 215.338C273.255 216.557 271.601 217.242 269.876 217.242C268.151 217.242 266.497 216.557 265.277 215.338L188.695 138.775L162.111 112.212C161.507 111.608 160.79 111.128 160 110.801C159.211 110.474 158.365 110.305 157.51 110.305C156.656 110.305 155.81 110.474 155.02 110.801C154.231 111.128 153.514 111.608 152.91 112.212L126.345 138.775L64.308 200.792C63.5325 201.57 62.5722 202.139 61.5171 202.445C60.4619 202.752 59.3463 202.786 58.2745 202.544C57.2027 202.302 56.2097 201.793 55.3883 201.063C54.5669 200.333 53.9439 199.408 53.5776 198.372C50.6924 190.067 49.2239 181.336 49.2335 172.544C49.2202 162.226 51.2463 152.006 55.1955 142.473C59.1446 132.94 64.939 124.281 72.2456 116.993C79.5341 109.688 88.1945 103.895 97.7293 99.9468C107.264 95.9985 117.485 93.9727 127.805 93.986H294.056C306.207 93.9745 318.194 96.7858 329.071 102.198C339.949 107.61 349.42 115.475 356.738 125.173C357.681 126.425 358.14 127.976 358.029 129.539C357.919 131.103 357.247 132.574 356.137 133.681L274.475 215.338Z" fill="url(#paint0_linear_2405_24)"/>
<path d="M382.037 24.955C379.85 27.1399 377.028 28.5762 373.974 29.0576C370.92 29.539 367.792 29.0409 365.039 27.6348C363.68 26.9394 362.438 26.0351 361.358 24.955C360.279 23.8749 359.375 22.6332 358.678 21.2747C357.271 18.5222 356.773 15.3952 357.255 12.3421C357.736 9.28893 359.173 6.46666 361.358 4.28042C364.101 1.53927 367.82 -0.000488281 371.698 -0.000488281C375.576 -0.000488281 379.295 1.53927 382.037 4.28042C383.395 5.63785 384.472 7.24949 385.207 9.02317C385.942 10.7969 386.32 12.6979 386.32 14.6177C386.32 16.5376 385.942 18.4387 385.207 20.2124C384.472 21.9861 383.395 23.5976 382.037 24.955Z" fill="#FF8D34"/>
</g>
<defs>
<linearGradient id="paint0_linear_2405_24" x1="207.763" y1="279.226" x2="207.763" y2="26.1829" gradientUnits="userSpaceOnUse">
<stop stop-color="#6627DD"/>
<stop offset="1" stop-color="#AF68E7"/>
</linearGradient>
<clipPath id="clip0_2405_24">
<rect width="414.718" height="279.55" fill="white" transform="translate(0.376953)"/>
</clipPath>
</defs>
</svg>
