<svg width="24" height="24" viewBox="0 0 24 24" fill="none" xmlns="http://www.w3.org/2000/svg">
<path d="M2 9.75C1.59 9.75 1.25 9.41 1.25 9V6.5C1.25 3.6 3.61 1.25 6.5 1.25H9C9.41 1.25 9.75 1.59 9.75 2C9.75 2.41 9.41 2.75 9 2.75H6.5C4.43 2.75 2.75 4.43 2.75 6.5V9C2.75 9.41 2.41 9.75 2 9.75Z" fill="#560AB5"/>
<path d="M22 9.75C21.59 9.75 21.25 9.41 21.25 9V6.5C21.25 4.43 19.57 2.75 17.5 2.75H15C14.59 2.75 14.25 2.41 14.25 2C14.25 1.59 14.59 1.25 15 1.25H17.5C20.39 1.25 22.75 3.6 22.75 6.5V9C22.75 9.41 22.41 9.75 22 9.75Z" fill="#560AB5"/>
<path d="M17.5 22.75H16C15.59 22.75 15.25 22.41 15.25 22C15.25 21.59 15.59 21.25 16 21.25H17.5C19.57 21.25 21.25 19.57 21.25 17.5V16C21.25 15.59 21.59 15.25 22 15.25C22.41 15.25 22.75 15.59 22.75 16V17.5C22.75 20.4 20.39 22.75 17.5 22.75Z" fill="#560AB5"/>
<path d="M9 22.75H6.5C3.61 22.75 1.25 20.4 1.25 17.5V15C1.25 14.59 1.59 14.25 2 14.25C2.41 14.25 2.75 14.59 2.75 15V17.5C2.75 19.57 4.43 21.25 6.5 21.25H9C9.41 21.25 9.75 21.59 9.75 22C9.75 22.41 9.41 22.75 9 22.75Z" fill="#560AB5"/>
<path d="M8.50109 11.3801C10.0917 11.3801 11.3811 10.0907 11.3811 8.50012C11.3811 6.90954 10.0917 5.62012 8.50109 5.62012C6.91051 5.62012 5.62109 6.90954 5.62109 8.50012C5.62109 10.0907 6.91051 11.3801 8.50109 11.3801Z" fill="#560AB5"/>
<path d="M7.50109 18.3801C8.53939 18.3801 9.38109 17.5384 9.38109 16.5001C9.38109 15.4618 8.53939 14.6201 7.50109 14.6201C6.4628 14.6201 5.62109 15.4618 5.62109 16.5001C5.62109 17.5384 6.4628 18.3801 7.50109 18.3801Z" fill="#560AB5"/>
<path d="M16.5011 9.38012C17.5394 9.38012 18.3811 8.53841 18.3811 7.50012C18.3811 6.46182 17.5394 5.62012 16.5011 5.62012C15.4628 5.62012 14.6211 6.46182 14.6211 7.50012C14.6211 8.53841 15.4628 9.38012 16.5011 9.38012Z" fill="#560AB5"/>
<path d="M15.5011 18.3801C17.0917 18.3801 18.3811 17.0907 18.3811 15.5001C18.3811 13.9095 17.0917 12.6201 15.5011 12.6201C13.9105 12.6201 12.6211 13.9095 12.6211 15.5001C12.6211 17.0907 13.9105 18.3801 15.5011 18.3801Z" fill="#560AB5"/>
</svg>
