<svg width="49" height="48" viewBox="0 0 49 48" fill="none" xmlns="http://www.w3.org/2000/svg">
<rect x="0.5" width="48" height="48" rx="24" fill="white"/>
<path fill-rule="evenodd" clip-rule="evenodd" d="M11.2202 23.0105C17.6626 20.2037 21.9586 18.3532 24.1081 17.4592C30.2453 14.9065 31.5206 14.463 32.3518 14.4484C32.5346 14.4452 32.9434 14.4905 33.2082 14.7053C33.4317 14.8867 33.4933 15.1318 33.5227 15.3038C33.5521 15.4758 33.5888 15.8676 33.5596 16.1738C33.2271 19.6682 31.788 28.1483 31.0559 32.0622C30.7461 33.7182 30.1361 34.2735 29.5456 34.3279C28.2622 34.446 27.2877 33.4797 26.0447 32.6649C24.0997 31.3899 23.0009 30.5963 21.1129 29.3521C18.931 27.9142 20.3454 27.124 21.5889 25.8325C21.9143 25.4945 27.5688 20.3513 27.6782 19.8847C27.6919 19.8264 27.7046 19.6089 27.5754 19.494C27.4462 19.3791 27.2555 19.4184 27.1178 19.4497C26.9227 19.4939 23.8155 21.5477 17.7961 25.6109C16.9142 26.2166 16.1153 26.5116 15.3996 26.4962C14.6105 26.4791 13.0926 26.05 11.9643 25.6832C10.5803 25.2334 9.48034 24.9955 9.57613 24.2315C9.62602 23.8335 10.174 23.4265 11.2202 23.0105Z" fill="#560AB5"/>
</svg>
