<svg width="207" height="46" viewBox="0 0 207 46" fill="none" xmlns="http://www.w3.org/2000/svg">
<g clip-path="url(#clip0_2645_357)">
<path d="M36.162 5.30134C36.1265 5.27897 29.1278 0.832323 29.1278 0.832323C29.0554 0.786019 28.9651 0.786019 28.8919 0.832323L22.0192 5.17554L15.1585 0.779844C15.086 0.733541 14.9958 0.732769 14.9226 0.778301C14.9226 0.778301 7.91831 5.14622 7.8842 5.16705C7.81173 5.21183 7.76412 5.2751 7.76341 5.3654L7.72149 13.9963L0.932518 18.2955C0.90765 18.3009 0.776205 18.3781 0.757731 18.4059C0.724338 18.4838 0.743521 18.6937 0.743521 18.6937V27.3455C0.743521 27.4365 0.788284 27.5199 0.860757 27.5654L7.71936 31.8631C7.7222 31.8692 7.72718 31.8739 7.73073 31.88L7.68881 40.4447C7.68881 40.5356 7.73286 40.6198 7.80462 40.6653L14.6675 45.0217C14.676 45.0339 14.7798 45.1105 14.8856 45.1058C15 45.1012 15.1059 45.0056 15.1272 44.9884L21.8238 40.8435L28.72 45.2208C28.7562 45.244 28.7974 45.2555 28.8379 45.2555C28.8784 45.2555 28.9267 45.2362 28.9537 45.2222C30.7727 44.2631 35.9737 40.859 35.9737 40.859C36.0462 40.8142 36.0917 40.7301 36.0917 40.6398L36.1343 31.8871C36.1393 31.8051 36.0967 31.6694 36.0249 31.6232L29.0319 27.1432C29.0319 27.1432 28.8692 27.0963 28.7967 27.1418L21.9183 31.4442L15.1663 27.1185V18.7701L22.005 14.5396L28.8266 18.8357C28.8415 18.8527 28.8585 18.8674 28.877 18.8789C28.9132 18.9021 28.9537 18.9129 28.9942 18.9129C29.0347 18.9129 29.0745 18.9013 29.1108 18.8789L36.1308 14.4925C36.2032 14.447 36.248 14.3636 36.248 14.2726L36.2644 5.47034C36.2644 5.37929 36.2345 5.34378 36.162 5.29826V5.30134ZM35.6249 40.4916L29.0738 44.5409L29.1136 36.3506L30.5837 35.4384L35.6647 32.2931L35.6249 40.4916ZM28.9118 27.6573L35.4408 31.8399L30.3393 35.0055L28.8784 35.9099L22.3517 31.7611L28.9118 27.6573ZM22.1457 32.2236L28.6461 36.3553L28.6056 44.5617L22.1052 40.4354L22.1457 32.2236ZM21.767 14.1036L15.1841 18.1759L15.2025 14.376L15.2238 9.9903L21.7819 5.92643L21.767 14.1036ZM15.0384 1.29226L21.5354 5.45415L14.9837 9.51261L8.49241 5.38699L15.0384 1.29226ZM14.7563 9.9741L14.7272 15.9155L14.7165 18.125L8.18973 13.9917L8.22952 5.83151L14.7563 9.9741ZM7.68881 31.2581L1.21175 27.1995V19.0364L7.68881 23.1056V31.2581ZM1.4583 18.5517L7.93465 14.4501L14.4238 18.5695L7.95526 22.6287L1.4583 18.5517ZM14.6981 19.0433V27.1393L8.22099 31.191V23.1134L14.6981 19.0433ZM14.6199 44.4034L8.15776 40.3011L8.19755 32.1463L14.6597 36.2543L14.6199 44.4034ZM21.6114 40.3913L15.1521 44.3897L15.1919 36.2364L21.6512 32.2282L21.6114 40.3913ZM21.448 31.735L14.9283 35.7757L8.48389 31.6794L14.9943 27.6001L21.448 31.735ZM28.7612 18.2091L22.2359 14.0997L22.2757 5.95421L28.7761 10.0474L28.7612 18.2091ZM29.0106 9.57126L22.4945 5.46264L29.0099 1.34551L35.5332 5.49118L29.0106 9.57126ZM35.7805 14.1275L29.2287 18.2215L29.2429 10.4935V10.0343L35.7961 5.93183L35.7805 14.1275Z" fill="white"/>
<mask id="mask0_2645_357" style="mask-type:luminance" maskUnits="userSpaceOnUse" x="0" y="0" width="37" height="46">
<path d="M36.5012 0.5H0.501221V45.5H36.5012V0.5Z" fill="white"/>
<path d="M36.162 5.30134C36.1265 5.27897 29.1278 0.832323 29.1278 0.832323C29.0554 0.786019 28.9651 0.786019 28.8919 0.832323L22.0192 5.17554L15.1585 0.779844C15.086 0.733541 14.9958 0.732769 14.9226 0.778301C14.9226 0.778301 7.91831 5.14622 7.8842 5.16705C7.81173 5.21183 7.76412 5.2751 7.76341 5.3654L7.72149 13.9963L0.932518 18.2955C0.90765 18.3009 0.776205 18.3781 0.757731 18.4059C0.724338 18.4838 0.743521 18.6937 0.743521 18.6937V27.3455C0.743521 27.4365 0.788284 27.5199 0.860757 27.5654L7.71936 31.8631C7.7222 31.8692 7.72718 31.8739 7.73073 31.88L7.68881 40.4447C7.68881 40.5356 7.73286 40.6198 7.80462 40.6653L14.6675 45.0217C14.676 45.0339 14.7798 45.1105 14.8856 45.1058C15 45.1012 15.1059 45.0056 15.1272 44.9884L21.8238 40.8435L28.72 45.2208C28.7562 45.244 28.7974 45.2555 28.8379 45.2555C28.8784 45.2555 28.9267 45.2362 28.9537 45.2222C30.7727 44.2631 35.9737 40.859 35.9737 40.859C36.0462 40.8142 36.0917 40.7301 36.0917 40.6398L36.1343 31.8871C36.1393 31.8051 36.0967 31.6694 36.0249 31.6232L29.0319 27.1432C29.0319 27.1432 28.8692 27.0963 28.7967 27.1418L21.9183 31.4442L15.1663 27.1185V18.7701L22.005 14.5396L28.8266 18.8357C28.8415 18.8527 28.8585 18.8674 28.877 18.8789C28.9132 18.9021 28.9537 18.9129 28.9942 18.9129C29.0347 18.9129 29.0745 18.9013 29.1108 18.8789L36.1308 14.4925C36.2032 14.447 36.248 14.3636 36.248 14.2726L36.2644 5.47034C36.2644 5.37929 36.2345 5.34378 36.162 5.29826V5.30134ZM35.6249 40.4916L29.0738 44.5409L29.1136 36.3506L30.5837 35.4384L35.6647 32.2931L35.6249 40.4916ZM28.9118 27.6573L35.4408 31.8399L30.3393 35.0055L28.8784 35.9099L22.3517 31.7611L28.9118 27.6573ZM22.1457 32.2236L28.6461 36.3553L28.6056 44.5617L22.1052 40.4354L22.1457 32.2236ZM21.767 14.1036L15.1841 18.1759L15.2025 14.376L15.2238 9.9903L21.7819 5.92643L21.767 14.1036ZM15.0384 1.29226L21.5354 5.45415L14.9837 9.51261L8.49241 5.38699L15.0384 1.29226ZM14.7563 9.9741L14.7272 15.9155L14.7165 18.125L8.18973 13.9917L8.22952 5.83151L14.7563 9.9741ZM7.68881 31.2581L1.21175 27.1995V19.0364L7.68881 23.1056V31.2581ZM1.4583 18.5517L7.93465 14.4501L14.4238 18.5695L7.95526 22.6287L1.4583 18.5517ZM14.6981 19.0433V27.1393L8.22099 31.191V23.1134L14.6981 19.0433ZM14.6199 44.4034L8.15776 40.3011L8.19755 32.1463L14.6597 36.2543L14.6199 44.4034ZM21.6114 40.3913L15.1521 44.3897L15.1919 36.2364L21.6512 32.2282L21.6114 40.3913ZM21.448 31.735L14.9283 35.7757L8.48389 31.6794L14.9943 27.6001L21.448 31.735ZM28.7612 18.2091L22.2359 14.0997L22.2757 5.95421L28.7761 10.0474L28.7612 18.2091ZM29.0106 9.57126L22.4945 5.46264L29.0099 1.34551L35.5332 5.49118L29.0106 9.57126ZM35.7805 14.1275L29.2287 18.2215L29.2429 10.4935V10.0343L35.7961 5.93183L35.7805 14.1275Z" fill="black"/>
</mask>
<g mask="url(#mask0_2645_357)">
<path d="M36.162 5.30134C36.1265 5.27897 29.1278 0.832323 29.1278 0.832323C29.0554 0.786019 28.9651 0.786019 28.8919 0.832323L22.0192 5.17554L15.1585 0.779844C15.086 0.733541 14.9958 0.732769 14.9226 0.778301C14.9226 0.778301 7.91831 5.14622 7.8842 5.16705C7.81173 5.21183 7.76412 5.2751 7.76341 5.3654L7.72149 13.9963L0.932518 18.2955C0.90765 18.3009 0.776205 18.3781 0.757731 18.4059C0.724338 18.4838 0.743521 18.6937 0.743521 18.6937V27.3455C0.743521 27.4365 0.788284 27.5199 0.860757 27.5654L7.71936 31.8631C7.7222 31.8692 7.72718 31.8739 7.73073 31.88L7.68881 40.4447C7.68881 40.5356 7.73286 40.6198 7.80462 40.6653L14.6675 45.0217C14.676 45.0339 14.7798 45.1105 14.8856 45.1058C15 45.1012 15.1059 45.0056 15.1272 44.9884L21.8238 40.8435L28.72 45.2208C28.7562 45.244 28.7974 45.2555 28.8379 45.2555C28.8784 45.2555 28.9267 45.2362 28.9537 45.2222C30.7727 44.2631 35.9737 40.859 35.9737 40.859C36.0462 40.8142 36.0917 40.7301 36.0917 40.6398L36.1343 31.8871C36.1393 31.8051 36.0967 31.6694 36.0249 31.6232L29.0319 27.1432C29.0319 27.1432 28.8692 27.0963 28.7967 27.1418L21.9183 31.4442L15.1663 27.1185V18.7701L22.005 14.5396L28.8266 18.8357C28.8415 18.8527 28.8585 18.8674 28.877 18.8789C28.9132 18.9021 28.9537 18.9129 28.9942 18.9129C29.0347 18.9129 29.0745 18.9013 29.1108 18.8789L36.1308 14.4925C36.2032 14.447 36.248 14.3636 36.248 14.2726L36.2644 5.47034C36.2644 5.37929 36.2345 5.34378 36.162 5.29826V5.30134ZM35.6249 40.4916L29.0738 44.5409L29.1136 36.3506L30.5837 35.4384L35.6647 32.2931L35.6249 40.4916ZM28.9118 27.6573L35.4409 31.8399L30.3393 35.0055L28.8784 35.9099L22.3517 31.7611L28.9118 27.6573ZM22.1457 32.2236L28.6461 36.3553L28.6056 44.5617L22.1052 40.4354L22.1457 32.2236ZM21.767 14.1036L15.1841 18.1759L15.2025 14.376L15.2238 9.9903L21.7819 5.92643L21.767 14.1036ZM15.0384 1.29226L21.5354 5.45415L14.9837 9.51261L8.49241 5.38699L15.0384 1.29226ZM14.7563 9.97411L14.7272 15.9155L14.7165 18.125L8.18973 13.9917L8.22952 5.83151L14.7563 9.97411ZM7.68881 31.2581L1.21175 27.1995V19.0364L7.68881 23.1056V31.2581ZM1.4583 18.5517L7.93465 14.4501L14.4238 18.5695L7.95526 22.6287L1.4583 18.5517ZM14.6981 19.0433V27.1393L8.22099 31.191V23.1134L14.6981 19.0433ZM14.6199 44.4034L8.15776 40.3011L8.19755 32.1463L14.6597 36.2543L14.6199 44.4034ZM21.6114 40.3913L15.1521 44.3897L15.1919 36.2364L21.6512 32.2282L21.6114 40.3913ZM21.448 31.735L14.9283 35.7757L8.48389 31.6794L14.9943 27.6001L21.448 31.735ZM28.7612 18.2091L22.2359 14.0997L22.2757 5.95421L28.7761 10.0474L28.7612 18.2091ZM29.0106 9.57126L22.4945 5.46263L29.0099 1.34551L35.5332 5.49118L29.0106 9.57126ZM35.7805 14.1275L29.2287 18.2215L29.2429 10.4935V10.0343L35.7961 5.93183L35.7805 14.1275Z" stroke="white"/>
</g>
</g>
<path d="M54.5292 26.392V16.668C54.5292 13.9293 55.8899 12.56 58.6112 12.56H65.8392L67.1652 13.6V14.952H58.6372C57.6492 14.952 57.1552 15.4373 57.1552 16.408V26.652C57.1552 27.6227 57.6492 28.108 58.6372 28.108H67.1652V29.46L65.8392 30.5H58.6112C55.8899 30.5 54.5292 29.1307 54.5292 26.392ZM70.2919 26.496V20.906C70.2919 18.254 71.6179 16.928 74.2699 16.928H77.9099C80.5619 16.928 81.8879 18.254 81.8879 20.906V26.496C81.8879 29.1653 80.5619 30.5 77.9099 30.5H74.2699C71.6179 30.5 70.2919 29.1653 70.2919 26.496ZM72.8139 26.756C72.8139 27.7787 73.3253 28.29 74.3479 28.29H77.8579C78.8633 28.29 79.3659 27.7787 79.3659 26.756V20.646C79.3659 19.6407 78.8633 19.138 77.8579 19.138H74.3479C73.3253 19.138 72.8139 19.6407 72.8139 20.646V26.756ZM85.7343 30.5V16.928H101.152C103.804 16.928 105.13 18.254 105.13 20.906V30.5H102.608V20.646C102.608 19.6407 102.106 19.138 101.1 19.138H96.7063V30.5H94.1583V19.138H88.2563V30.5H85.7343ZM109.094 30.5V16.928H124.512C127.164 16.928 128.49 18.254 128.49 20.906V30.5H125.968V20.646C125.968 19.6407 125.465 19.138 124.46 19.138H120.066V30.5H117.518V19.138H111.616V30.5H109.094ZM132.349 26.496V16.928H134.871V26.756C134.871 27.7787 135.382 28.29 136.405 28.29H141.163V16.928H143.685V30.5H136.327C133.675 30.5 132.349 29.1653 132.349 26.496ZM147.738 30.5V16.928H155.096C157.748 16.928 159.074 18.254 159.074 20.906V30.5H156.552V20.646C156.552 19.6407 156.05 19.138 155.044 19.138H150.26V30.5H147.738ZM162.815 26.496V20.906C162.815 18.254 164.141 16.928 166.793 16.928H170.173C172.825 16.928 174.151 18.254 174.151 20.906V24.65H165.337V26.756C165.337 27.7787 165.849 28.29 166.871 28.29H173.631V29.616L172.461 30.5H166.793C164.141 30.5 162.815 29.1653 162.815 26.496ZM165.337 22.674H171.629V20.646C171.629 19.6407 171.127 19.138 170.121 19.138H166.871C165.849 19.138 165.337 19.6407 165.337 20.646V22.674ZM182.716 29.954L188.462 12.56H192.648L198.368 29.954L198.03 30.5H195.82L194.468 26.236H186.642L185.264 30.5H183.08L182.716 29.954ZM187.396 23.844H193.714L190.828 14.952H190.282L187.396 23.844ZM201.141 30.5V12.56H203.767V30.5H201.141Z" fill="white"/>
<defs>
<clipPath id="clip0_2645_357">
<rect width="36" height="45" fill="white" transform="translate(0.501221 0.5)"/>
</clipPath>
</defs>
</svg>
