<svg width="24" height="24" viewBox="0 0 24 24" fill="none" xmlns="http://www.w3.org/2000/svg">
<path d="M3.99854 18.7514C3.99854 18.5614 4.06853 18.3714 4.21853 18.2214L18.2185 4.22141C18.5085 3.93141 18.9885 3.93141 19.2785 4.22141C19.5685 4.51141 19.5685 4.9914 19.2785 5.2814L5.27854 19.2814C4.98854 19.5714 4.50853 19.5714 4.21853 19.2814C4.06853 19.1314 3.99854 18.9414 3.99854 18.7514Z" fill="white"/>
<path d="M7.72897 4.75146C7.72897 4.34146 8.06897 4.00146 8.47897 4.00146L18.749 4.00147C19.159 4.00147 19.499 4.34147 19.499 4.75147L19.499 15.0215C19.499 15.4315 19.159 15.7715 18.749 15.7715C18.339 15.7715 17.999 15.4315 17.999 15.0215L17.999 5.50147L8.47897 5.50146C8.06897 5.50146 7.72897 5.16146 7.72897 4.75146Z" fill="white"/>
</svg>
