<svg width="338" height="46" viewBox="0 0 338 46" fill="none" xmlns="http://www.w3.org/2000/svg">
<g clip-path="url(#clip0_2645_339)">
<path d="M9.08185 3.92346C8.96988 4.14228 8.82429 4.3422 8.65038 4.51592C8.47662 4.6898 8.27666 4.83538 8.05779 4.94732C7.6146 5.17368 7.11107 5.25387 6.61947 5.17637C6.12787 5.09887 5.67346 4.86765 5.32144 4.51592C4.88019 4.07447 4.63232 3.4759 4.63232 2.8518C4.63232 2.22771 4.88019 1.62914 5.32144 1.18768C5.76292 0.746409 6.36163 0.498535 6.9859 0.498535C7.61018 0.498535 8.20889 0.746409 8.65038 1.18768C9.00218 1.53963 9.23343 1.99397 9.31094 2.48547C9.38846 2.97696 9.30826 3.48037 9.08185 3.92346Z" fill="#FF8D34"/>
<path fill-rule="evenodd" clip-rule="evenodd" d="M8.85261 6.23657L11.5366 10.3154C9.39924 11.293 7.45253 12.6464 5.78996 14.3129C3.95377 16.144 2.49763 18.3198 1.50521 20.7153C0.512795 23.1108 0.0036732 25.6788 0.00710598 28.2717C0.00054855 32.311 1.23944 36.2541 3.55506 39.5641C4.74475 41.267 6.19462 42.7725 7.85167 44.0254C8.05341 44.1775 8.30334 44.2515 8.55538 44.2339C8.80742 44.2162 9.04458 44.108 9.22312 43.9293L14.0287 39.1257L24.5644 28.5918C24.6616 28.4945 24.777 28.4173 24.9041 28.3646C25.0312 28.312 25.1674 28.2848 25.305 28.2848C25.4425 28.2848 25.5787 28.312 25.7058 28.3646C25.8329 28.4173 25.9483 28.4945 26.0456 28.5918L38.374 40.9177L42.651 45.1962C42.8474 45.3925 43.1137 45.5028 43.3914 45.5028C43.669 45.5028 43.9353 45.3925 44.1317 45.1962L48.4112 40.9177L48.3659 40.8724C48.3991 40.8698 48.4318 40.8668 48.4666 40.8633L59.8838 29.448L66.4651 22.8676C66.6045 22.7285 66.7018 22.5529 66.7458 22.361C66.7898 22.1691 66.7787 21.9687 66.7138 21.7828C65.9659 19.6382 64.8528 17.6389 63.4237 15.8733C61.3311 13.2836 58.5972 11.2345 55.4637 9.96636L57.9177 6.23701C57.5988 6.06111 57.3063 5.84116 57.0488 5.58364C56.7905 5.32611 56.5702 5.03324 56.3942 4.71382L50.3843 8.66683C49.6212 8.57733 48.8449 8.53131 48.0578 8.53131H19.7517C18.6829 8.52989 17.6183 8.61552 16.5683 8.78612L10.3771 4.7124C10.2012 5.03182 9.98082 5.32467 9.72261 5.5822C9.46499 5.84032 9.17208 6.06064 8.85261 6.23657ZM44.1292 35.1632C43.9328 35.3595 43.6665 35.4697 43.3888 35.4697C43.1112 35.4697 42.8449 35.3595 42.6485 35.1632L30.32 22.8379L26.0405 18.5618C25.9433 18.4645 25.8279 18.3873 25.7008 18.3346C25.5737 18.282 25.4375 18.2548 25.2999 18.2548C25.1624 18.2548 25.0261 18.282 24.8991 18.3346C24.772 18.3873 24.6565 18.4645 24.5593 18.5618L20.2828 22.8379L10.296 32.8216C10.1712 32.9468 10.0166 33.0384 9.84672 33.0877C9.67686 33.137 9.49727 33.1425 9.32473 33.1036C9.15219 33.0647 8.99233 32.9827 8.8601 32.8652C8.72787 32.7478 8.62758 32.5987 8.56861 32.432C8.10414 31.095 7.86774 29.6895 7.86929 28.2742C7.86714 26.6131 8.19331 24.968 8.82905 23.4333C9.46479 21.8986 10.3976 20.5046 11.5738 19.3315C12.7471 18.1555 14.1413 17.2229 15.6762 16.5873C17.2112 15.9517 18.8566 15.6256 20.518 15.6277H47.2814C49.2374 15.6259 51.167 16.0784 52.9182 16.9497C54.6693 17.821 56.194 19.0871 57.372 20.6483C57.5238 20.8498 57.5976 21.0994 57.5799 21.3512C57.5621 21.6029 57.4539 21.8397 57.2753 22.0179L44.1292 35.1632Z" fill="white"/>
<path d="M61.4404 4.51592C61.0884 4.86765 60.6339 5.09887 60.1423 5.17637C59.6507 5.25387 59.1472 5.17368 58.704 4.94732C58.4852 4.83538 58.2852 4.6898 58.1114 4.51592C57.9377 4.34204 57.7921 4.14216 57.68 3.92346C57.4536 3.48037 57.3733 2.97696 57.4509 2.48547C57.5284 1.99397 57.7596 1.53963 58.1114 1.18768C58.5529 0.746409 59.1516 0.498535 59.7759 0.498535C60.4002 0.498535 60.9989 0.746409 61.4404 1.18768C61.659 1.40621 61.8324 1.66565 61.9507 1.95118C62.069 2.23671 62.1299 2.54274 62.1299 2.8518C62.1299 3.16087 62.069 3.46692 61.9507 3.75245C61.8324 4.03798 61.659 4.2974 61.4404 4.51592Z" fill="#FF8D34"/>
</g>
<path d="M336.835 13.7949L324.835 27.8967L315.81 39.3319H308.836L321.451 24.461L329.912 13.7949H336.835ZM308.836 13.7949H315.861L324.887 24.461L337.501 39.3319H330.527L321.194 27.9993L308.836 13.7949Z" fill="white"/>
<path d="M301.177 30.9223H306.664C306.39 32.6658 305.707 34.2212 304.613 35.5887C303.553 36.9219 302.1 37.9817 300.254 38.768C298.408 39.5201 296.203 39.8961 293.639 39.8961C290.733 39.8961 288.135 39.3662 285.845 38.3065C283.554 37.2125 281.759 35.6741 280.46 33.6913C279.161 31.7086 278.512 29.3497 278.512 26.6148C278.512 23.9141 279.144 21.5553 280.409 19.5383C281.674 17.5213 283.417 15.9658 285.64 14.8719C287.896 13.7779 290.494 13.231 293.434 13.231C296.477 13.231 299.006 13.7779 301.023 14.8719C303.074 15.9317 304.596 17.5384 305.587 19.6921C306.579 21.8117 306.989 24.4953 306.818 27.743H284.306C284.477 29.1788 284.939 30.4779 285.691 31.6402C286.477 32.7683 287.537 33.6572 288.87 34.3067C290.203 34.922 291.759 35.2297 293.537 35.2297C295.519 35.2297 297.177 34.8366 298.511 34.0503C299.878 33.264 300.767 32.2213 301.177 30.9223ZM293.28 17.8461C290.955 17.8461 289.041 18.4272 287.537 19.5896C286.033 20.7177 285.058 22.1706 284.614 23.9483H301.075C300.938 22.0339 300.169 20.5468 298.767 19.487C297.365 18.3931 295.536 17.8461 293.28 17.8461Z" fill="white"/>
<path d="M246.94 13.795H252.632V39.3321H246.94V13.795ZM263.401 13.231C264.871 13.231 266.221 13.4361 267.452 13.8463C268.717 14.2565 269.794 14.889 270.682 15.7436C271.605 16.5641 272.306 17.5897 272.785 18.8204C273.298 20.0511 273.554 21.504 273.554 23.1791V39.3321H267.862V24.3073C267.862 22.2219 267.349 20.6835 266.324 19.6921C265.332 18.6666 263.76 18.1538 261.606 18.1538C259.965 18.1538 258.461 18.5127 257.093 19.2306C255.76 19.9143 254.666 20.8203 253.812 21.9484C252.957 23.0424 252.461 24.256 252.325 25.5892L252.273 22.8202C252.444 21.5553 252.82 20.3588 253.401 19.2306C253.983 18.0683 254.752 17.0427 255.709 16.1539C256.666 15.2308 257.794 14.5129 259.093 14.0001C260.392 13.4874 261.828 13.231 263.401 13.231Z" fill="white"/>
<path d="M236.219 30.9223H241.706C241.433 32.6658 240.749 34.2212 239.655 35.5887C238.595 36.9219 237.142 37.9817 235.296 38.768C233.45 39.5201 231.245 39.8961 228.681 39.8961C225.775 39.8961 223.177 39.3662 220.887 38.3065C218.596 37.2125 216.802 35.6741 215.503 33.6913C214.203 31.7086 213.554 29.3497 213.554 26.6148C213.554 23.9141 214.186 21.5553 215.451 19.5383C216.716 17.5213 218.46 15.9658 220.682 14.8719C222.938 13.7779 225.536 13.231 228.476 13.231C231.519 13.231 234.049 13.7779 236.066 14.8719C238.117 15.9317 239.638 17.5384 240.629 19.6921C241.621 21.8117 242.031 24.4953 241.86 27.743H219.349C219.519 29.1788 219.981 30.4779 220.733 31.6402C221.519 32.7683 222.579 33.6572 223.912 34.3067C225.246 34.922 226.801 35.2297 228.579 35.2297C230.562 35.2297 232.22 34.8366 233.553 34.0503C234.92 33.264 235.809 32.2213 236.219 30.9223ZM228.322 17.8461C225.998 17.8461 224.083 18.4272 222.579 19.5896C221.075 20.7177 220.101 22.1706 219.656 23.9483H236.117C235.98 22.0339 235.211 20.5468 233.809 19.487C232.408 18.3931 230.579 17.8461 228.322 17.8461Z" fill="white"/>
<path d="M161.615 13.795H167.307V39.3321H161.615V13.795ZM178.075 13.231C179.545 13.231 180.896 13.4361 182.126 13.8463C183.391 14.2565 184.468 14.889 185.357 15.7436C186.28 16.5641 186.981 17.5897 187.459 18.8204C187.972 20.0511 188.229 21.504 188.229 23.1791V39.3321H182.537V24.3073C182.537 22.2219 182.024 20.6835 180.998 19.6921C180.007 18.6666 178.434 18.1538 176.281 18.1538C174.64 18.1538 173.135 18.5127 171.768 19.2306C170.435 19.9143 169.341 20.8203 168.486 21.9484C167.632 23.0424 167.136 24.256 166.999 25.5892L166.948 22.8202C167.119 21.5553 167.495 20.3588 168.076 19.2306C168.657 18.0683 169.426 17.0427 170.383 16.1539C171.341 15.2308 172.469 14.5129 173.768 14.0001C175.067 13.4874 176.503 13.231 178.075 13.231ZM198.433 13.231C199.937 13.231 201.305 13.4361 202.536 13.8463C203.766 14.2565 204.826 14.889 205.715 15.7436C206.638 16.5641 207.356 17.5897 207.869 18.8204C208.381 20.0511 208.638 21.504 208.638 23.1791V39.3321H202.894V24.3073C202.894 22.2219 202.382 20.6835 201.356 19.6921C200.365 18.6666 198.792 18.1538 196.638 18.1538C194.997 18.1538 193.493 18.5127 192.126 19.2306C190.793 19.9143 189.699 20.8203 188.844 21.9484C188.024 23.0424 187.545 24.256 187.408 25.5892L187.306 22.7176C187.477 21.4869 187.87 20.3075 188.485 19.1793C189.1 18.017 189.887 16.9914 190.844 16.1026C191.801 15.2138 192.912 14.5129 194.177 14.0001C195.476 13.4874 196.895 13.231 198.433 13.231Z" fill="white"/>
<path d="M155.319 39.332H149.627V13.7949H155.319V39.332ZM149.934 27.1788L149.986 28.8197C149.917 29.2641 149.763 29.9308 149.524 30.8196C149.319 31.7084 148.96 32.6828 148.447 33.7425C147.969 34.7681 147.319 35.7595 146.499 36.7167C145.712 37.6397 144.721 38.4089 143.525 39.0243C142.328 39.6054 140.875 39.896 139.166 39.896C137.935 39.896 136.687 39.7251 135.422 39.3832C134.192 39.0756 133.064 38.5457 132.038 37.7936C131.047 37.0415 130.243 36.0159 129.628 34.7168C129.013 33.4178 128.705 31.7768 128.705 29.794V13.7949H134.397V28.7172C134.397 30.3239 134.653 31.5888 135.166 32.5118C135.713 33.4007 136.465 34.0331 137.422 34.4092C138.38 34.7852 139.491 34.9732 140.755 34.9732C142.567 34.9732 144.106 34.563 145.371 33.7425C146.635 32.9221 147.644 31.9136 148.396 30.717C149.182 29.4863 149.695 28.3069 149.934 27.1788Z" fill="white"/>
<path d="M117.478 33.2815L115.735 33.9481V6.10352H121.529V39.3324H115.735L90.8133 12.3083L92.608 11.6417V39.3324H86.7622V6.10352H92.608L117.478 33.2815Z" fill="white"/>
<defs>
<clipPath id="clip0_2645_339">
<rect width="66.7621" height="45.0026" fill="white" transform="translate(0 0.498535)"/>
</clipPath>
</defs>
</svg>
